<svg width="50" height="50" viewBox="0 0 50 50" fill="none" xmlns="http://www.w3.org/2000/svg">
<rect width="50" height="50" rx="25" fill="#0A2540"/>
<g clip-path="url(#clip0_13:1155)">
<path d="M21.25 10.5217C21.433 10.7441 21.5452 11.0163 21.5719 11.303C21.5986 11.5898 21.5388 11.878 21.4 12.1304C20.316 14.1207 19.7499 16.3516 19.7538 18.6179C19.7538 26.1573 25.9 32.2623 33.475 32.2623C34.4631 32.2623 35.425 32.1592 36.3494 31.9623C36.6327 31.9009 36.9279 31.9244 37.198 32.0298C37.4681 32.1352 37.7012 32.3178 37.8681 32.5548C38.0444 32.8013 38.1342 33.0991 38.1237 33.4019C38.1132 33.7047 38.0029 33.9955 37.81 34.2292C36.3394 36.0356 34.4842 37.4911 32.3797 38.4895C30.2752 39.488 27.9743 40.0041 25.645 40.0004C17.0012 40.0004 10 33.0367 10 24.4567C10 17.9992 13.9638 12.4604 19.6075 10.1129C19.8886 9.99412 20.2007 9.96974 20.4969 10.0434C20.7931 10.1171 21.0573 10.285 21.25 10.5217V10.5217Z" fill="#F9EC21"/>
<path d="M30.2388 15.9026C30.2656 15.8214 30.3174 15.7508 30.3868 15.7007C30.4561 15.6506 30.5395 15.6236 30.625 15.6236C30.7105 15.6236 30.7939 15.6506 30.8632 15.7007C30.9326 15.7508 30.9844 15.8214 31.0113 15.9026L31.7369 18.0814C32.0613 19.0526 32.8225 19.8139 33.7938 20.1382L35.9725 20.8639C36.0537 20.8908 36.1244 20.9426 36.1745 21.0119C36.2245 21.0812 36.2515 21.1646 36.2515 21.2501C36.2515 21.3357 36.2245 21.419 36.1745 21.4884C36.1244 21.5577 36.0537 21.6095 35.9725 21.6364L33.7938 22.362C33.3147 22.5216 32.8795 22.7906 32.5225 23.1476C32.1654 23.5046 31.8965 23.9399 31.7369 24.4189L31.0113 26.5976C30.9844 26.6788 30.9326 26.7495 30.8632 26.7996C30.7939 26.8496 30.7105 26.8766 30.625 26.8766C30.5395 26.8766 30.4561 26.8496 30.3868 26.7996C30.3174 26.7495 30.2656 26.6788 30.2388 26.5976L29.5131 24.4189C29.3535 23.9399 29.0846 23.5046 28.7276 23.1476C28.3705 22.7906 27.9353 22.5216 27.4563 22.362L25.2775 21.6364C25.1963 21.6095 25.1257 21.5577 25.0756 21.4884C25.0255 21.419 24.9985 21.3357 24.9985 21.2501C24.9985 21.1646 25.0255 21.0812 25.0756 21.0119C25.1257 20.9426 25.1963 20.8908 25.2775 20.8639L27.4563 20.1382C27.9353 19.9787 28.3705 19.7097 28.7276 19.3527C29.0846 18.9957 29.3535 18.5604 29.5131 18.0814L30.2388 15.9026ZM35.9931 10.1857C36.0116 10.1324 36.0463 10.0861 36.0924 10.0533C36.1384 10.0205 36.1935 10.0029 36.25 10.0029C36.3065 10.0029 36.3616 10.0205 36.4077 10.0533C36.4537 10.0861 36.4884 10.1324 36.5069 10.1857L36.9906 11.637C37.2063 12.2857 37.7144 12.7939 38.3631 13.0095L39.8144 13.4932C39.8678 13.5118 39.9141 13.5464 39.9468 13.5925C39.9796 13.6385 39.9972 13.6936 39.9972 13.7501C39.9972 13.8066 39.9796 13.8617 39.9468 13.9078C39.9141 13.9538 39.8678 13.9885 39.8144 14.007L38.3631 14.4907C38.0434 14.5971 37.7529 14.7765 37.5147 15.0148C37.2764 15.253 37.097 15.5435 36.9906 15.8632L36.5069 17.3145C36.4884 17.3679 36.4537 17.4142 36.4077 17.4469C36.3616 17.4797 36.3065 17.4973 36.25 17.4973C36.1935 17.4973 36.1384 17.4797 36.0924 17.4469C36.0463 17.4142 36.0116 17.3679 35.9931 17.3145L35.5094 15.8632C35.403 15.5435 35.2236 15.253 34.9854 15.0148C34.7471 14.7765 34.4566 14.5971 34.1369 14.4907L32.6856 14.007C32.6323 13.9885 32.586 13.9538 32.5532 13.9078C32.5204 13.8617 32.5028 13.8066 32.5028 13.7501C32.5028 13.6936 32.5204 13.6385 32.5532 13.5925C32.586 13.5464 32.6323 13.5118 32.6856 13.4932L34.1369 13.0095C34.7856 12.7939 35.2938 12.2857 35.5094 11.637L35.9931 10.1876V10.1857Z" fill="#F9F9F9"/>
</g>
<defs>
<clipPath id="clip0_13:1155">
<rect width="30" height="30" fill="white" transform="translate(10 10)"/>
</clipPath>
</defs>
</svg>
