<svg width="50" height="50" viewBox="0 0 50 50" fill="none" xmlns="http://www.w3.org/2000/svg">
<rect width="50" height="50" rx="25" fill="white"/>
<g clip-path="url(#clip0_13:1126)">
<path d="M43.2359 24.3031L36.1448 22.2398C35.8491 21.0709 35.387 19.9505 34.7726 18.913C35.9524 16.7512 37.134 14.5893 38.3155 12.4281C38.6385 11.8367 37.9943 11.1895 37.4018 11.5149L30.9429 15.0619C29.8956 14.4307 28.7605 13.9581 27.5746 13.6595C26.8722 11.2667 26.1704 8.87389 25.468 6.47514C25.2821 5.83923 24.3678 5.83685 24.1807 6.47514C23.4843 8.87389 22.786 11.2667 22.0883 13.6654C20.9246 13.9629 19.8096 14.426 18.7776 15.0406C16.6009 13.8531 14.4236 12.6596 12.2469 11.4721C11.6568 11.1497 11.009 11.7945 11.3343 12.3871L14.9147 18.9053C14.295 19.9476 13.8301 21.0744 13.5348 22.2505L6.47807 24.3191C5.84275 24.5055 5.83919 25.4211 6.47807 25.6064L13.5372 27.6601C13.8409 28.8573 14.3188 30.0034 14.9556 31.0617C13.7812 33.2099 12.6068 35.3575 11.4335 37.5063C11.1093 38.0977 11.7535 38.7454 12.3461 38.4207C14.4913 37.2421 16.6371 36.0635 18.7829 34.8861C19.8253 35.5075 20.9526 35.974 22.1293 36.2707C22.8175 38.6243 23.508 40.9756 24.1973 43.3262C24.3844 43.9639 25.2993 43.9651 25.4846 43.3262C26.168 40.9779 26.8532 38.6291 27.5354 36.2802C28.7252 35.9825 29.8649 35.5118 30.918 34.8831L37.3151 38.3791C37.3754 38.4294 37.4457 38.4665 37.5212 38.4881C37.5968 38.5097 37.676 38.5152 37.7538 38.5044C37.9153 38.4949 38.059 38.4207 38.1707 38.3114C38.2942 38.1974 38.3785 38.0436 38.3886 37.8691C38.3987 37.7906 38.3925 37.7108 38.3702 37.6349C38.3479 37.559 38.3101 37.4885 38.2591 37.4279C37.0918 35.3005 35.9215 33.1713 34.7536 31.0427C35.3769 29.9917 35.8444 28.856 36.1418 27.6708C38.5049 26.9773 40.8716 26.2838 43.2353 25.5915C43.8724 25.4051 43.8748 24.4889 43.2365 24.3031" fill="#FBB041"/>
<path d="M24.7344 35.5314C30.6045 35.5314 35.3631 30.7727 35.3631 24.9026C35.3631 19.0326 30.6045 14.2739 24.7344 14.2739C18.8644 14.2739 14.1057 19.0326 14.1057 24.9026C14.1057 30.7727 18.8644 35.5314 24.7344 35.5314Z" fill="#F9EC21"/>
</g>
<defs>
<clipPath id="clip0_13:1126">
<rect width="38" height="38" fill="white" transform="translate(6 6)"/>
</clipPath>
</defs>
</svg>
